<mxfile host="www.draw.io" modified="2020-05-22T06:01:40.467Z" agent="5.0 (X11; Linux x86_64) AppleWebKit/537.36 (KHTML, like Gecko) Chrome/77.0.3865.120 Safari/537.36" etag="JzgOeUgje46ItOYsnODD" version="12.9.6" type="github">
  <diagram id="ziwd58BBXpggzG_KKJVm" name="qiankun-架构">
    <mxGraphModel dx="1021" dy="580" grid="0" gridSize="10" guides="1" tooltips="1" connect="1" arrows="1" fold="1" page="1" pageScale="1" pageWidth="827" pageHeight="1169" math="0" shadow="0">
      <root>
        <mxCell id="0" />
        <mxCell id="1" parent="0" />
        <mxCell id="5wTCeCjxCG_gy_nCkENd-27" value="" style="rounded=0;whiteSpace=wrap;html=1;dashed=1;dashPattern=1 2;fontSize=14;fillColor=#dae8fc;strokeColor=#6c8ebf;" vertex="1" parent="1">
          <mxGeometry x="106" y="288" width="383" height="90" as="geometry" />
        </mxCell>
        <mxCell id="5wTCeCjxCG_gy_nCkENd-20" style="edgeStyle=orthogonalEdgeStyle;curved=1;rounded=0;orthogonalLoop=1;jettySize=auto;html=1;exitX=0.5;exitY=1;exitDx=0;exitDy=0;entryX=0.5;entryY=0;entryDx=0;entryDy=0;fontSize=14;strokeColor=#888;" edge="1" parent="1" source="5wTCeCjxCG_gy_nCkENd-4" target="5wTCeCjxCG_gy_nCkENd-5">
          <mxGeometry relative="1" as="geometry" />
        </mxCell>
        <mxCell id="5wTCeCjxCG_gy_nCkENd-21" style="edgeStyle=orthogonalEdgeStyle;curved=1;rounded=0;orthogonalLoop=1;jettySize=auto;html=1;exitX=0.5;exitY=1;exitDx=0;exitDy=0;entryX=0.5;entryY=0;entryDx=0;entryDy=0;fontSize=14;strokeColor=#888;" edge="1" parent="1" source="5wTCeCjxCG_gy_nCkENd-4" target="5wTCeCjxCG_gy_nCkENd-6">
          <mxGeometry relative="1" as="geometry" />
        </mxCell>
        <mxCell id="5wTCeCjxCG_gy_nCkENd-22" style="edgeStyle=orthogonalEdgeStyle;curved=1;rounded=0;orthogonalLoop=1;jettySize=auto;html=1;exitX=0.5;exitY=1;exitDx=0;exitDy=0;fontSize=14;strokeColor=#888;" edge="1" parent="1" source="5wTCeCjxCG_gy_nCkENd-4" target="5wTCeCjxCG_gy_nCkENd-7">
          <mxGeometry relative="1" as="geometry" />
        </mxCell>
        <mxCell id="5wTCeCjxCG_gy_nCkENd-4" value="&lt;font style=&quot;font-size: 14px&quot;&gt;主应用&lt;/font&gt;" style="rounded=0;whiteSpace=wrap;html=1;fontSize=14;fillColor=#f5f5f5;strokeColor=#666666;fontColor=#333333;dashed=1;dashPattern=1 2;" vertex="1" parent="1">
          <mxGeometry x="260" y="130" width="80" height="50" as="geometry" />
        </mxCell>
        <mxCell id="5wTCeCjxCG_gy_nCkENd-18" style="edgeStyle=orthogonalEdgeStyle;curved=1;rounded=0;orthogonalLoop=1;jettySize=auto;html=1;exitX=0.5;exitY=1;exitDx=0;exitDy=0;entryX=0.5;entryY=0;entryDx=0;entryDy=0;fontSize=14;strokeColor=#888;" edge="1" parent="1" source="5wTCeCjxCG_gy_nCkENd-5" target="5wTCeCjxCG_gy_nCkENd-10">
          <mxGeometry relative="1" as="geometry" />
        </mxCell>
        <mxCell id="5wTCeCjxCG_gy_nCkENd-19" style="edgeStyle=orthogonalEdgeStyle;curved=1;rounded=0;orthogonalLoop=1;jettySize=auto;html=1;fontSize=14;exitX=0.5;exitY=1;exitDx=0;exitDy=0;strokeColor=#888;" edge="1" parent="1" source="5wTCeCjxCG_gy_nCkENd-5" target="5wTCeCjxCG_gy_nCkENd-11">
          <mxGeometry relative="1" as="geometry">
            <mxPoint x="210" y="280" as="sourcePoint" />
          </mxGeometry>
        </mxCell>
        <mxCell id="5wTCeCjxCG_gy_nCkENd-5" value="&lt;font style=&quot;font-size: 14px&quot;&gt;子应用A&lt;/font&gt;" style="rounded=0;whiteSpace=wrap;html=1;fontSize=14;dashed=1;dashPattern=1 2;fillColor=#f5f5f5;strokeColor=#666666;fontColor=#333333;" vertex="1" parent="1">
          <mxGeometry x="160" y="220" width="80" height="50" as="geometry" />
        </mxCell>
        <mxCell id="5wTCeCjxCG_gy_nCkENd-24" style="edgeStyle=orthogonalEdgeStyle;curved=1;rounded=0;orthogonalLoop=1;jettySize=auto;html=1;exitX=0.5;exitY=1;exitDx=0;exitDy=0;entryX=0.5;entryY=0;entryDx=0;entryDy=0;fontSize=14;strokeColor=#888;" edge="1" parent="1" source="5wTCeCjxCG_gy_nCkENd-6" target="5wTCeCjxCG_gy_nCkENd-11">
          <mxGeometry relative="1" as="geometry" />
        </mxCell>
        <mxCell id="5wTCeCjxCG_gy_nCkENd-6" value="&lt;font style=&quot;font-size: 14px&quot;&gt;子应用B&lt;/font&gt;" style="rounded=0;whiteSpace=wrap;html=1;fontSize=14;dashed=1;dashPattern=1 2;fillColor=#f5f5f5;strokeColor=#666666;fontColor=#333333;" vertex="1" parent="1">
          <mxGeometry x="260" y="220" width="80" height="50" as="geometry" />
        </mxCell>
        <mxCell id="5wTCeCjxCG_gy_nCkENd-23" style="edgeStyle=orthogonalEdgeStyle;curved=1;rounded=0;orthogonalLoop=1;jettySize=auto;html=1;exitX=0.5;exitY=1;exitDx=0;exitDy=0;entryX=0.5;entryY=0;entryDx=0;entryDy=0;fontSize=14;strokeColor=#888;" edge="1" parent="1" source="5wTCeCjxCG_gy_nCkENd-7" target="5wTCeCjxCG_gy_nCkENd-12">
          <mxGeometry relative="1" as="geometry" />
        </mxCell>
        <mxCell id="5wTCeCjxCG_gy_nCkENd-7" value="&lt;font style=&quot;font-size: 14px&quot;&gt;子应用C&lt;/font&gt;" style="rounded=0;whiteSpace=wrap;html=1;fontSize=14;dashed=1;dashPattern=1 2;fillColor=#f5f5f5;strokeColor=#666666;fontColor=#333333;" vertex="1" parent="1">
          <mxGeometry x="360" y="220" width="80" height="50" as="geometry" />
        </mxCell>
        <mxCell id="5wTCeCjxCG_gy_nCkENd-8" value="1.注册子应用信息" style="text;html=1;align=center;verticalAlign=middle;resizable=0;points=[];autosize=1;fontSize=14;" vertex="1" parent="1">
          <mxGeometry x="344" y="110" width="130" height="20" as="geometry" />
        </mxCell>
        <mxCell id="5wTCeCjxCG_gy_nCkENd-9" value="2.根据路由，激活并加载某个子应用" style="text;html=1;align=center;verticalAlign=middle;resizable=0;points=[];autosize=1;fontSize=14;" vertex="1" parent="1">
          <mxGeometry x="344" y="140" width="240" height="20" as="geometry" />
        </mxCell>
        <mxCell id="5wTCeCjxCG_gy_nCkENd-10" value="&lt;span style=&quot;font-size: 14px&quot;&gt;service-X&lt;/span&gt;" style="ellipse;whiteSpace=wrap;html=1;fontFamily=Helvetica;fontSize=14;fontColor=#000000;align=center;strokeColor=none;fillColor=#ffffff;dashed=1;dashPattern=1 2;" vertex="1" parent="1">
          <mxGeometry x="160" y="310" width="80" height="50" as="geometry" />
        </mxCell>
        <mxCell id="5wTCeCjxCG_gy_nCkENd-11" value="&lt;span style=&quot;font-size: 14px&quot;&gt;service-Y&lt;/span&gt;" style="ellipse;whiteSpace=wrap;html=1;fontFamily=Helvetica;fontSize=14;fontColor=#000000;align=center;strokeColor=none;fillColor=#ffffff;dashed=1;dashPattern=1 2;" vertex="1" parent="1">
          <mxGeometry x="260" y="310" width="80" height="50" as="geometry" />
        </mxCell>
        <mxCell id="5wTCeCjxCG_gy_nCkENd-12" value="&lt;span style=&quot;font-size: 14px&quot;&gt;service-Z&lt;/span&gt;" style="ellipse;whiteSpace=wrap;html=1;fontFamily=Helvetica;fontSize=14;fontColor=#000000;align=center;strokeColor=none;fillColor=#ffffff;dashed=1;dashPattern=1 2;" vertex="1" parent="1">
          <mxGeometry x="360" y="310" width="80" height="50" as="geometry" />
        </mxCell>
        <mxCell id="5wTCeCjxCG_gy_nCkENd-16" style="edgeStyle=orthogonalEdgeStyle;curved=1;rounded=0;orthogonalLoop=1;jettySize=auto;html=1;entryX=0;entryY=0.5;entryDx=0;entryDy=0;fontSize=14;" edge="1" parent="1" target="5wTCeCjxCG_gy_nCkENd-4">
          <mxGeometry relative="1" as="geometry">
            <mxPoint x="90" y="155" as="sourcePoint" />
          </mxGeometry>
        </mxCell>
        <mxCell id="5wTCeCjxCG_gy_nCkENd-17" value="统一访问入口" style="text;html=1;align=center;verticalAlign=middle;resizable=0;points=[];labelBackgroundColor=#ffffff;fontSize=14;" vertex="1" connectable="0" parent="5wTCeCjxCG_gy_nCkENd-16">
          <mxGeometry x="-0.3091" relative="1" as="geometry">
            <mxPoint x="12" y="-5" as="offset" />
          </mxGeometry>
        </mxCell>
        <mxCell id="5wTCeCjxCG_gy_nCkENd-15" value="" style="shape=actor;whiteSpace=wrap;html=1;fontSize=14;strokeColor=#888;" vertex="1" parent="1">
          <mxGeometry x="40" y="120" width="40" height="60" as="geometry" />
        </mxCell>
        <mxCell id="5wTCeCjxCG_gy_nCkENd-28" value="后&lt;br&gt;端" style="text;html=1;align=center;verticalAlign=middle;resizable=0;points=[];autosize=1;fontSize=14;" vertex="1" parent="1">
          <mxGeometry x="110" y="317" width="30" height="40" as="geometry" />
        </mxCell>
      </root>
    </mxGraphModel>
  </diagram>
</mxfile>
